<?xml version="1.0" encoding="utf-8"?>
<!-- Svg Vector Icons : http://www.onlinewebfonts.com/icon -->
<!DOCTYPE svg PUBLIC "-//W3C//DTD SVG 1.1//EN" "http://www.w3.org/Graphics/SVG/1.1/DTD/svg11.dtd">
<svg version="1.1" xmlns="http://www.w3.org/2000/svg" xmlns:xlink="http://www.w3.org/1999/xlink" x="0px" y="0px" viewBox="0 0 1000 1000" enable-background="new 0 0 1000 1000" xml:space="preserve">
<metadata> Svg Vector Icons : http://www.onlinewebfonts.com/icon </metadata>
<g><g transform="translate(0.000000,511.000000) scale(0.100000,-0.100000)"><path d="M4869.2,4984c-157.4-55.2-257.5-196.2-257.5-365.9c0-167.6,79.7-290.2,235.1-361.8c112.4-51.1,208.5-49.1,329.1,12.3c128.8,65.4,196.2,163.5,208.5,306.6s-22.5,237.1-118.6,325C5145.1,5008.6,5014.3,5037.2,4869.2,4984z"/><path d="M3573.3,4381c-265.7-161.5-151.3-572.3,159.4-572.3c310.7,0,425.1,410.8,159.4,572.3c-40.9,24.5-104.2,40.9-159.4,40.9C3677.5,4421.9,3614.2,4405.6,3573.3,4381z"/><path d="M6107.8,4381c-265.7-161.5-151.3-572.3,159.4-572.3c173.7,0,306.6,132.9,306.6,306.6s-132.9,306.6-306.6,306.6C6212,4421.9,6148.7,4405.6,6107.8,4381z"/><path d="M4844.6,4064.2c-4.1-10.2-57.2-304.6-120.6-654.1c-61.3-347.5-122.6-666.3-132.9-709.3c-24.5-87.9-69.5-110.4-118.5-61.3c-18.4,18.4-141,269.8-269.8,558l-233,523.3l-67.5-26.6c-36.8-16.4-94-28.6-128.8-28.6c-75.6,0-73.6,26.6-30.7-613.2c18.4-253.4,26.6-480.3,20.4-504.9c-8.2-32.7-26.6-47-61.3-47c-42.9,0-85.9,53.1-278,343.4c-124.7,188-235.1,349.5-243.2,357.7c-8.2,10.2-51.1-2-94-24.5c-42.9-24.5-96.1-42.9-114.5-42.9c-20.4,0-36.8-4.1-36.8-10.2c0-28.6,329.1-1467.6,337.3-1483.9c16.3-24.5,3438-24.5,3454.3,0c8.2,16.4,337.3,1455.3,337.3,1483.9c0,6.1-14.3,10.2-30.7,10.2c-18.4,0-69.5,18.4-116.5,42.9c-45,22.5-89.9,34.7-98.1,24.5c-8.2-8.2-118.5-169.6-243.2-357.7c-194.2-292.3-235.1-343.4-278-343.4c-28.6,0-57.2,12.3-63.4,28.6c-6.1,16.4,4.1,243.2,20.4,506.9c45,645.9,45,629.5-18.4,629.5c-28.6,0-85.8,14.3-126.7,30.7c-40.9,16.3-75.6,28.6-77.7,26.6c-2.1-4.1-112.4-247.3-245.3-543.7c-132.9-296.4-257.5-545.7-275.9-556c-81.8-42.9-96.1,6.1-228.9,744l-128.8,713.3l-151.3,2C4916.2,4084.7,4848.7,4076.5,4844.6,4064.2z"/><path d="M2700.5,3720.9c-116.5-116.5-120.6-269.8-8.2-380.2c159.4-161.5,421.1-67.5,443.5,157.4c16.4,184-83.8,290.2-273.9,290.2C2782.3,3788.3,2757.7,3778.1,2700.5,3720.9z"/><path d="M6978.5,3755.6c-75.6-38.8-118.5-128.8-118.5-241.2c0-226.9,284.1-337.3,447.6-173.7c112.4,110.4,108.3,263.7-8.2,380.2c-57.2,57.2-81.8,67.4-165.5,67.4C7078.7,3786.3,7009.2,3774,6978.5,3755.6z"/><path d="M3283,1172c0-202.3-4.1-224.8-40.9-245.3C3093,847.1,3066.4,399.4,3189,45.8c61.3-177.8,186-388.3,308.6-525.3c65.4-73.6,108.3-147.2,143.1-251.4c169.6-494.6,539.6-885,991.3-1042.4c108.3-38.8,175.8-47,367.9-47c204.4,0,255.5,6.1,384.3,53.1c445.6,161.5,782.8,517.1,966.8,1017.9c42.9,120.6,87.9,200.3,153.3,271.8C6624.9-342.5,6747.6-132,6815,51.9c42.9,122.6,55.2,194.2,61.3,400.6c10.2,280-20.4,408.8-108.3,466c-45,28.6-45,36.8-34.7,253.4l10.2,224.8H5012.2H3283V1172z"/><path d="M3579.4-1323.6c-22.5-10.2-233-96.1-470.1-194.2c-558-226.9-968.8-429.2-1134.4-556c-374-284.1-639.8-705.2-807.4-1281.6c-112.4-388.4-147.2-809.4-73.6-876.9c104.2-94,752.2-280,1285.6-367.9c1743.5-288.2,4331.2-243.2,5747.6,100.2c367.9,89.9,715.4,208.5,780.8,269.8c71.5,65.4,34.8,492.6-75.6,874.8c-202.4,699-543.7,1165-1056.7,1439c-247.3,134.9-1365.4,615.2-1426.7,615.2c-10.2,0-65.4-61.3-126.7-134.9c-298.4-370-793.1-621.4-1222.3-621.4c-282.1,0-609.1,110.4-866.6,294.3c-128.8,92-441.5,404.7-441.5,441.5C3691.8-1297.1,3634.6-1297.1,3579.4-1323.6z"/></g></g>
</svg>