<?xml version="1.0" encoding="utf-8"?>
<!-- Svg Vector Icons : http://www.onlinewebfonts.com/icon -->
<!DOCTYPE svg PUBLIC "-//W3C//DTD SVG 1.1//EN" "http://www.w3.org/Graphics/SVG/1.1/DTD/svg11.dtd">
<svg version="1.1" xmlns="http://www.w3.org/2000/svg" xmlns:xlink="http://www.w3.org/1999/xlink" x="0px" y="0px" viewBox="0 0 1000 1000" enable-background="new 0 0 1000 1000" xml:space="preserve">
<metadata> Svg Vector Icons : http://www.onlinewebfonts.com/icon </metadata>
<g><g transform="translate(0.000000,511.000000) scale(0.100000,-0.100000)"><path d="M6116.8,4425.8c-387.7-44.2-743.2-150.6-1108.7-331.4c-259.1-126.5-598.5-343.5-594.5-377.6c0-10,100.4-40.2,222.9-64.3c122.5-24.1,323.4-78.3,443.9-118.5l223-72.3l168.7,72.3c682.9,293.2,1542.6,269.1,2207.4-64.3C8653.6,2979.6,9230,2013.5,9187.9,943c-26.1-678.9-271.2-1259.4-737.1-1747.4c-138.6-144.6-339.5-319.4-415.8-363.6c-4-2-28.1-114.5-56.2-249c-28.1-136.6-80.3-341.4-118.5-457.9c-38.2-118.5-66.3-216.9-62.3-220.9c18.1-16.1,504.1,251.1,674.9,373.6c233,164.7,596.5,520.2,759.2,741.2C9917-49.3,10087.7,1159.9,9686,2234.4c-253.1,678.9-727.1,1265.4-1345.7,1671.1C7711.6,4317.3,6872,4514.1,6116.8,4425.8z"/><path d="M6333.7,3411.4c-255.1-34.1-379.6-58.2-490.1-92.4l-126.5-38.2l210.9-126.5c279.2-166.7,488.1-319.4,709-518.2c881.8-795.4,1381.9-1865.9,1428.1-3046.9l12-311.3l148.6,156.7c875.7,911.9,851.6,2380.1-54.2,3286c-423.8,425.8-964.1,660.8-1576.7,690.9C6484.4,3415.5,6367.9,3415.5,6333.7,3411.4z"/><path d="M3397.3,3080C1776.4,2923.4,434.7,1680.1,147.5,69.3C101.3-191.9,85.2-694,115.3-955.1C260-2222.5,1025.2-3309.1,2158-3859.4c1371.8-666.8,3020.8-409.7,4123.5,644.7C7195.4-2341,7595.1-1073.6,7346.1,159.6C6976.5,1995.4,5265.2,3260.8,3397.3,3080z M4204.7,2288.7C5405.8,2093.8,6361.9,1171.9,6594.9-15.1c46.2-235,60.3-652.8,30.1-891.8c-160.7-1285.5-1136.8-2303.8-2408.2-2510.6c-251.1-40.2-692.9-38.2-940,4C2162-3224.7,1236.1-2375.1,960.9-1286.5c-204.9,809.4-66.3,1634.9,393.7,2323.9c429.8,646.7,1160.9,1120.8,1926.2,1249.3C3499.7,2324.8,3981.8,2324.8,4204.7,2288.7z"/><path d="M3451.5,1983.4c-640.7-100.4-1082.6-319.4-1508.4-747.2C1443,734.1,1200,145.6,1200-563.4c0-723.1,261.1-1339.7,783.3-1843.8c486.1-470,1096.7-717.1,1767.5-717.1c1241.3,0,2263.6,841.6,2526.7,2074.8c48.2,229,48.2,745.1-2,974.1c-235,1096.7-1082.6,1898.1-2171.2,2052.7C3969.7,1995.4,3556,2001.5,3451.5,1983.4z M3869.3,1242.2c68.3-48.2,104.4-136.6,104.4-255.1V878.7l136.6-12c202.9-16.1,321.4-52.2,385.6-118.5c108.5-106.5,96.4-285.2-22.1-387.6c-72.3-60.3-140.6-64.3-333.4-18.1c-180.8,42.2-472,32.1-560.4-20.1c-70.3-42.2-128.5-128.5-128.5-192.8c0-134.6,126.5-231,512.2-381.6c321.4-126.5,453.9-202.9,572.4-321.4c299.3-297.2,283.2-807.4-32.1-1104.7c-114.5-108.5-341.5-229-472-251.1l-78.3-14.1v-128.6c0-224.9-74.3-329.4-233-329.4c-68.3,0-98.4,12-146.6,62.3c-58.2,56.2-62.3,70.3-62.3,206.9v144.6l-182.8,26.1c-271.2,36.2-437.9,96.4-494.1,180.8c-86.4,128.6-44.2,325.4,82.3,393.7c74.3,40.2,160.7,34.2,353.5-20.1c164.7-46.2,373.6-58.3,512.2-30.1c160.7,34.2,271.2,136.6,271.2,253.1c0,166.7-126.5,277.2-447.9,389.7c-415.8,148.6-660.8,317.3-773.3,532.3c-48.2,88.4-54.2,122.5-54.2,301.3c0,176.7,6,214.9,54.2,315.3c104.4,222.9,311.3,389.7,584.5,468l114.5,32.1v142.6c0,132.6,4,144.6,68.3,208.9c54.2,54.2,84.4,68.3,146.6,68.3C3788.9,1274.4,3845.2,1260.3,3869.3,1242.2z"/></g></g>
</svg>