<?xml version="1.0" encoding="utf-8"?>
<!-- Svg Vector Icons : http://www.onlinewebfonts.com/icon -->
<!DOCTYPE svg PUBLIC "-//W3C//DTD SVG 1.1//EN" "http://www.w3.org/Graphics/SVG/1.1/DTD/svg11.dtd">
<svg version="1.1" xmlns="http://www.w3.org/2000/svg" xmlns:xlink="http://www.w3.org/1999/xlink" x="0px" y="0px" viewBox="0 0 1000 1000" enable-background="new 0 0 1000 1000" xml:space="preserve">
<metadata> Svg Vector Icons : http://www.onlinewebfonts.com/icon </metadata>
<g><path d="M987.3,12c-398.7-31-623.6,264.8-701.1,499.2l203,203C731.6,629.1,1021,411.1,987.3,12z M631.2,446.3c-21.3,21.3-55.9,21.3-77.2,0c-21.3-21.3-21.3-55.9,0-77.2c21.3-21.3,55.9-21.3,77.2,0C652.5,390.3,652.5,424.9,631.2,446.3z M807.1,320.6c-35.2,35.2-92.3,35.2-127.5,0c-35.2-35.2-35.2-92.3,0-127.5c35.2-35.2,92.3-35.2,127.5,0S842.3,285.4,807.1,320.6z M347.6,677.5l38.3,38.3c-35.6,36.1-72.1,78.8-86.4,137.5l-52.6-12.8C264.5,768.1,307.6,717.9,347.6,677.5z M285.8,615.8l38.2,38.2c-42.3,41.7-91.2,83.3-162.8,100.8l-12.9-52.6C207.1,687.8,250,651.1,285.8,615.8z M10,468.3c67.3-131.1,211.8-207.5,313.5-199.2c-35.7,52.5-79,141.4-93.9,188.4C145.7,404.8,75.5,419,10,468.3z M389.7,859.5c7.8,76.7-35.8,123.5-93.8,129.3c-34.1,3.5-64.3-7.7-89.1-33.3c-59.5,21-116.2-1.8-146.1-44.3C37.2,877.9,32,835.5,46.3,795C20.7,770.2,9.5,740.3,13,705.9c5.8-57.5,51.5-101.9,131.7-93.5l7.9,45.6c-27.1,2.5-52.2,4-68.4,20.2c-27.3,27.3-19.1,84.3,32.1,99.4c-34,34.2-30.7,83.2-5.2,110.1c26.7,28.2,77.8,32.6,112.9-2.4c15.7,53.3,73.4,58.1,99.4,32.2c16-16,17.6-40.6,20.1-67.4L389.7,859.5z M731.1,676.8c8.3,101.6-68.1,246.2-199.2,313.5c49.3-65.5,63.5-135.7,10.8-219.6C589.8,755.8,678.6,712.4,731.1,676.8z"/></g>
</svg>